<svg width="49" height="49" viewBox="0 0 49 49" fill="none" xmlns="http://www.w3.org/2000/svg">
<circle cx="24.5" cy="24.5" r="24.5" fill="#1F2937"/>
<path d="M24.6023 22.7559C24.517 22.0363 24.1714 21.4775 23.5653 21.0798C22.9593 20.6821 22.2159 20.4832 21.3352 20.4832C20.6913 20.4832 20.1278 20.5874 19.6449 20.7957C19.1667 21.0041 18.7926 21.2905 18.5227 21.6551C18.2576 22.0197 18.125 22.434 18.125 22.898C18.125 23.2863 18.2173 23.6201 18.402 23.8994C18.5914 24.174 18.8328 24.4037 19.1264 24.5883C19.42 24.7683 19.7277 24.9174 20.0497 25.0358C20.3717 25.1494 20.6676 25.2417 20.9375 25.3128L22.4148 25.7105C22.7935 25.8099 23.215 25.9472 23.679 26.1224C24.1477 26.2976 24.5952 26.5367 25.0213 26.8398C25.4522 27.1381 25.8073 27.5216 26.0866 27.9903C26.366 28.4591 26.5057 29.0344 26.5057 29.7162C26.5057 30.5022 26.2997 31.2124 25.8878 31.8469C25.4806 32.4813 24.884 32.9856 24.098 33.3596C23.3168 33.7337 22.3674 33.9207 21.25 33.9207C20.2083 33.9207 19.3063 33.7526 18.544 33.4165C17.7864 33.0803 17.1899 32.6115 16.7543 32.0102C16.3234 31.4089 16.0795 30.7105 16.0227 29.915H17.8409C17.8882 30.4643 18.0729 30.9188 18.3949 31.2787C18.7216 31.6338 19.1335 31.8989 19.6307 32.0741C20.1326 32.2446 20.6723 32.3298 21.25 32.3298C21.9223 32.3298 22.526 32.2209 23.0611 32.0031C23.5961 31.7806 24.0199 31.4728 24.3324 31.0798C24.6449 30.6821 24.8011 30.2181 24.8011 29.6878C24.8011 29.2048 24.6662 28.8118 24.3963 28.5088C24.1264 28.2058 23.7713 27.9595 23.331 27.7702C22.8906 27.5808 22.4148 27.415 21.9034 27.273L20.1136 26.7616C18.9773 26.4349 18.0776 25.9685 17.4148 25.3625C16.7519 24.7564 16.4204 23.9633 16.4204 22.9832C16.4204 22.1688 16.6406 21.4586 17.081 20.8525C17.526 20.2417 18.1226 19.7683 18.8707 19.4321C19.6236 19.0912 20.464 18.9207 21.392 18.9207C22.3295 18.9207 23.1629 19.0888 23.892 19.425C24.6212 19.7564 25.1989 20.211 25.625 20.7886C26.0559 21.3663 26.2831 22.022 26.3068 22.7559H24.6023ZM29.4016 33.665V19.1196H34.4869C35.5001 19.1196 36.3358 19.2948 36.994 19.6452C37.6521 19.9908 38.1422 20.4572 38.4641 21.0443C38.7861 21.6267 38.9471 22.273 38.9471 22.9832C38.9471 23.6082 38.8358 24.1243 38.6133 24.5315C38.3955 24.9387 38.1066 25.2607 37.7468 25.4974C37.3917 25.7342 37.0058 25.9094 36.5891 26.023V26.165C37.0342 26.1934 37.4816 26.3497 37.9315 26.6338C38.3813 26.9179 38.7577 27.3251 39.0607 27.8554C39.3637 28.3857 39.5153 29.0344 39.5153 29.8014C39.5153 30.5306 39.3495 31.1863 39.0181 31.7687C38.6867 32.3511 38.1635 32.8128 37.4485 33.1537C36.7335 33.4946 35.8031 33.665 34.6573 33.665H29.4016ZM31.163 32.1025H34.6573C35.8079 32.1025 36.6246 31.88 37.1076 31.4349C37.5953 30.9851 37.8391 30.4406 37.8391 29.8014C37.8391 29.309 37.7136 28.8544 37.4627 28.4378C37.2118 28.0164 36.8543 27.6802 36.3903 27.4292C35.9262 27.1736 35.377 27.0457 34.7425 27.0457H31.163V32.1025ZM31.163 25.5116H34.43C34.9603 25.5116 35.4386 25.4075 35.8647 25.1991C36.2956 24.9908 36.6365 24.6972 36.8874 24.3184C37.1431 23.9397 37.2709 23.4946 37.2709 22.9832C37.2709 22.344 37.0484 21.8019 36.6033 21.3568C36.1583 20.907 35.4528 20.6821 34.4869 20.6821H31.163V25.5116Z" fill="white"/>
<path d="M8 22.8565L20.8565 10L23.8295 12.9731L22.8452 13.9574L20.9971 12.1093L10.1093 22.9971L11.9574 24.8452L10.9731 25.8295L8 22.8565Z" fill="#2563EB"/>
</svg>
