<svg width="29" height="30" viewBox="0 0 29 30" fill="none" xmlns="http://www.w3.org/2000/svg">
<path d="M10.298 20.584C9.57 20.584 8.87 20.4673 8.198 20.234C7.53533 19.9913 7.022 19.6833 6.658 19.31L7.064 18.512C7.40933 18.848 7.87133 19.1327 8.45 19.366C9.038 19.59 9.654 19.702 10.298 19.702C10.914 19.702 11.4133 19.6273 11.796 19.478C12.188 19.3193 12.4727 19.1093 12.65 18.848C12.8367 18.5867 12.93 18.2973 12.93 17.98C12.93 17.5973 12.818 17.2893 12.594 17.056C12.3793 16.8227 12.0947 16.6407 11.74 16.51C11.3853 16.37 10.9933 16.2487 10.564 16.146C10.1347 16.0433 9.70533 15.936 9.276 15.824C8.84667 15.7027 8.45 15.544 8.086 15.348C7.73133 15.152 7.442 14.8953 7.218 14.578C7.00333 14.2513 6.896 13.8267 6.896 13.304C6.896 12.8187 7.022 12.3753 7.274 11.974C7.53533 11.5633 7.932 11.2367 8.464 10.994C8.996 10.742 9.67733 10.616 10.508 10.616C11.0587 10.616 11.6047 10.6953 12.146 10.854C12.6873 11.0033 13.154 11.2133 13.546 11.484L13.196 12.31C12.776 12.03 12.328 11.8247 11.852 11.694C11.3853 11.5633 10.9327 11.498 10.494 11.498C9.906 11.498 9.42067 11.5773 9.038 11.736C8.65533 11.8947 8.37067 12.1093 8.184 12.38C8.00667 12.6413 7.918 12.94 7.918 13.276C7.918 13.6587 8.02533 13.9667 8.24 14.2C8.464 14.4333 8.75333 14.6153 9.108 14.746C9.472 14.8767 9.86867 14.9933 10.298 15.096C10.7273 15.1987 11.152 15.3107 11.572 15.432C12.0013 15.5533 12.3933 15.712 12.748 15.908C13.112 16.0947 13.4013 16.3467 13.616 16.664C13.84 16.9813 13.952 17.3967 13.952 17.91C13.952 18.386 13.8213 18.8293 13.56 19.24C13.2987 19.6413 12.8973 19.968 12.356 20.22C11.824 20.4627 11.138 20.584 10.298 20.584ZM16.2093 20.5V10.7H20.4373C21.5293 10.7 22.3739 10.9193 22.9713 11.358C23.5779 11.7967 23.8813 12.4173 23.8813 13.22C23.8813 13.752 23.7553 14.2 23.5033 14.564C23.2606 14.928 22.9246 15.2033 22.4953 15.39C22.0753 15.5767 21.6133 15.67 21.1093 15.67L21.3473 15.334C21.9726 15.334 22.5093 15.432 22.9573 15.628C23.4146 15.8147 23.7693 16.0993 24.0213 16.482C24.2733 16.8553 24.3993 17.322 24.3993 17.882C24.3993 18.7127 24.0913 19.3567 23.4753 19.814C22.8686 20.2713 21.9493 20.5 20.7173 20.5H16.2093ZM17.2453 19.646H20.7033C21.5619 19.646 22.2199 19.5013 22.6773 19.212C23.1346 18.9133 23.3633 18.442 23.3633 17.798C23.3633 17.1633 23.1346 16.7013 22.6773 16.412C22.2199 16.1133 21.5619 15.964 20.7033 15.964H17.1333V15.11H20.3673C21.1513 15.11 21.7579 14.9607 22.1873 14.662C22.6259 14.3633 22.8453 13.92 22.8453 13.332C22.8453 12.7347 22.6259 12.2913 22.1873 12.002C21.7579 11.7033 21.1513 11.554 20.3673 11.554H17.2453V19.646Z" fill="#1C1917"/>
<path d="M27.2983 23.2375L12.8326 27.1136L12.0748 24.2854L12.9866 24.041L13.4505 25.772L26.0925 22.3846L25.6287 20.6536L26.5405 20.4093L27.2983 23.2375Z" fill="#1C1917"/>
<path d="M19.161 2.87466L19.9188 5.70289L19.007 5.94722L18.5432 4.21628L5.90114 7.6037L6.36495 9.33464L5.45311 9.57897L4.69529 6.75074L19.161 2.87466Z" fill="#1C1917"/>
</svg>
